<svg width="800" height="400" viewBox="0 0 800 400" xmlns="http://www.w3.org/2000/svg"><mask id="satori_om-id"><rect x="0" y="0" width="800" height="400" fill="#fff"/></mask><rect x="0" y="0" width="800" height="400" fill="#fff"/><clipPath id="satori_cp-id-0"><rect x="300" y="50" width="200" height="158"/></clipPath><mask id="satori_om-id-0"><rect x="300" y="50" width="200" height="158" fill="#fff"/></mask><image x="300" y="50" width="200" height="158" href="data:image/svg+xml;utf8,%3Csvg  fill=%22%23000%22 xmlns=%22http://www.w3.org/2000/svg%22 width=%22NaN%22 height=%22null%22 viewBox=%220 0 305 240%22%3E%3Cpath d=%22M 154.00,17.42 C 164.03,16.20 192.30,16.56 202.00,18.67 202.00,18.67 221.00,24.10 221.00,24.10 221.00,24.10 230.00,27.78 230.00,27.78 241.90,31.63 246.87,31.60 259.00,38.31 265.00,41.63 274.08,49.14 279.00,54.00 294.11,68.94 299.25,79.78 299.00,101.00 298.89,109.58 297.04,110.61 294.59,118.00 294.59,118.00 283.56,147.00 283.56,147.00 283.56,147.00 279.12,156.00 279.12,156.00 279.12,156.00 276.54,164.00 276.54,164.00 276.54,164.00 268.35,184.00 268.35,184.00 266.28,189.18 266.98,192.97 262.65,197.55 252.08,208.72 232.56,214.23 218.00,217.87 201.84,221.92 185.87,226.97 169.00,226.96 169.00,226.96 154.00,226.96 154.00,226.96 154.00,226.96 142.00,226.00 142.00,226.00 142.00,226.00 117.00,226.00 117.00,226.00 107.03,225.88 81.98,219.29 72.00,216.00 67.21,214.42 58.90,212.09 55.09,209.20 51.37,206.37 48.36,200.90 45.57,197.00 39.36,188.31 36.97,186.18 32.17,176.00 32.17,176.00 22.94,150.00 22.94,150.00 22.94,150.00 15.66,135.00 15.66,135.00 13.12,128.20 13.70,125.09 12.68,119.00 11.64,112.83 10.11,113.40 10.00,105.00 10.00,105.00 10.00,99.00 10.00,99.00 10.18,83.73 18.84,72.53 29.01,62.00 29.01,62.00 36.28,54.75 36.28,54.75 36.28,54.75 45.00,49.18 45.00,49.18 69.11,33.78 107.66,23.63 136.00,19.43 136.00,19.43 154.00,17.42 154.00,17.42 Z M 170.00,22.28 C 170.00,22.28 145.00,24.28 145.00,24.28 123.57,26.89 105.43,31.19 85.00,38.00 85.00,38.00 72.00,42.32 72.00,42.32 72.00,42.32 61.00,47.78 61.00,47.78 53.50,51.36 52.20,51.45 45.00,56.34 30.83,65.97 19.09,78.58 16.75,96.00 15.87,100.96 15.60,106.11 16.75,111.00 21.05,126.26 38.34,136.93 51.00,144.95 59.55,150.36 68.39,155.63 78.00,158.92 85.21,161.39 89.96,161.37 97.00,162.61 117.29,166.21 130.25,168.03 151.00,168.00 163.30,167.98 168.68,165.05 180.00,163.43 180.00,163.43 198.00,162.29 198.00,162.29 214.62,161.68 222.98,155.33 237.00,149.60 252.03,143.47 256.71,144.22 270.00,133.60 278.75,126.61 285.92,121.57 290.69,111.00 298.68,93.27 287.76,68.49 273.96,56.61 264.87,48.79 255.27,42.44 244.00,38.23 244.00,38.23 227.00,33.34 227.00,33.34 227.00,33.34 220.00,30.13 220.00,30.13 220.00,30.13 212.00,28.37 212.00,28.37 212.00,28.37 203.00,25.38 203.00,25.38 194.54,23.19 178.63,21.48 170.00,22.28 Z M 144.00,35.46 C 154.44,34.02 173.14,35.18 181.96,41.25 191.32,47.68 197.00,59.08 198.92,70.00 199.71,74.50 200.84,78.84 198.26,83.00 190.66,95.28 171.37,98.98 158.00,99.00 138.57,99.03 137.82,100.62 119.00,94.26 115.15,92.95 107.00,89.70 104.61,86.53 101.97,83.02 105.05,74.03 106.15,70.00 111.83,49.28 123.51,40.01 144.00,35.46 Z M 146.00,41.30 C 129.08,44.50 117.88,51.97 112.72,69.00 111.75,72.22 109.04,80.50 111.00,83.36 112.83,86.04 120.80,88.24 124.00,89.34 139.09,94.56 141.56,94.15 157.00,93.09 157.00,93.09 166.00,92.57 166.00,92.57 173.67,91.47 187.33,88.16 192.11,81.68 194.64,78.24 193.56,74.81 192.80,71.00 191.00,61.95 187.62,52.79 179.83,47.11 171.52,41.04 155.96,40.31 146.00,41.30 Z M 21.00,128.00 C 21.00,128.00 20.00,128.00 20.00,128.00 20.00,128.00 21.00,129.00 21.00,129.00 21.00,129.00 21.00,128.00 21.00,128.00 Z M 22.00,129.00 C 20.49,133.74 23.51,136.94 25.69,141.00 29.37,147.86 29.15,149.15 31.34,156.00 36.70,172.69 39.57,178.84 49.85,193.00 52.27,196.34 55.02,201.02 58.09,203.61 62.10,206.99 71.76,209.65 77.00,211.14 88.26,214.33 107.87,219.98 119.00,220.00 119.00,220.00 141.00,220.00 141.00,220.00 141.00,220.00 153.00,220.96 153.00,220.96 153.00,220.96 168.00,220.96 168.00,220.96 175.10,220.99 191.05,218.80 198.00,217.10 198.00,217.10 215.00,212.23 215.00,212.23 226.34,209.55 248.29,203.31 256.61,195.39 260.76,191.45 261.47,184.27 263.78,179.00 263.78,179.00 270.91,162.00 270.91,162.00 270.91,162.00 273.87,153.00 273.87,153.00 277.17,145.18 281.02,138.47 283.00,130.00 275.78,135.01 267.51,143.25 260.00,147.01 260.00,147.01 235.00,156.61 235.00,156.61 235.00,156.61 224.00,162.13 224.00,162.13 216.24,165.51 202.46,168.54 194.00,168.37 182.88,168.15 174.48,170.96 164.00,172.72 154.65,174.28 147.38,174.11 138.00,174.00 138.00,174.00 97.00,168.61 97.00,168.61 88.50,167.11 83.62,167.18 75.00,163.94 57.65,157.41 35.06,142.02 22.00,129.00 Z M -63.00,-250.00%22%3E%3C/path%3E%3C/svg%3E" preserveAspectRatio="none" clip-path="url(#satori_cp-id-0)" mask="url(#satori_om-id-0)"/><mask id="satori_om-id-0-0"><rect x="300" y="50" width="0" height="158" fill="#fff"/></mask><mask id="satori_om-id-1"><rect x="169" y="248" width="463" height="58" fill="#fff"/></mask><path fill="black" d="M170.1 258.0L178.3 258.0L186.8 284.5L187.1 284.5L195.6 258.0L203.7 258.0L191.7 292.9L182.2 292.9L170.1 258.0ZM209.9 258.0L217.3 258.0L217.3 292.9L209.9 292.9L209.9 258.0ZM232.8 292.9L225.4 292.9L225.4 258.0L239.2 258.0Q243.1 258.0 245.9 259.4Q248.7 260.8 250.2 263.4Q251.7 266.0 251.7 269.4L251.7 269.4Q251.7 272.9 250.2 275.4Q248.7 277.9 245.8 279.2Q243.0 280.6 239.0 280.6L239.0 280.6L229.8 280.6L229.8 274.6L237.8 274.6Q239.9 274.6 241.3 274.0Q242.7 273.5 243.4 272.3Q244.1 271.1 244.1 269.4L244.1 269.4Q244.1 267.7 243.4 266.5Q242.7 265.3 241.3 264.7Q239.9 264.1 237.8 264.1L237.8 264.1L232.8 264.1L232.8 292.9ZM236.3 277.0L244.3 277.0L252.9 292.9L244.8 292.9L236.3 277.0ZM268.3 264.1L257.6 264.1L257.6 258.0L286.2 258.0L286.2 264.1L275.6 264.1L275.6 292.9L268.3 292.9L268.3 264.1ZM314.5 280.1L314.5 258.0L321.9 258.0L321.9 280.7Q321.9 284.5 320.1 287.4Q318.3 290.2 315.0 291.8Q311.8 293.4 307.4 293.4L307.4 293.4Q303.1 293.4 299.8 291.8Q296.6 290.2 294.8 287.4Q293.0 284.5 293.0 280.7L293.0 280.7L293.0 258.0L300.4 258.0L300.4 280.1Q300.4 282.1 301.2 283.6Q302.1 285.2 303.7 286.0Q305.3 286.9 307.4 286.9L307.4 286.9Q309.6 286.9 311.2 286.0Q312.8 285.2 313.7 283.6Q314.5 282.1 314.5 280.1L314.5 280.1ZM344.8 266.0L336.0 292.9L328.1 292.9L340.1 258.0L349.7 258.0L361.7 292.9L353.8 292.9L345.0 266.0L344.8 266.0ZM335.5 285.0L335.5 279.2L354.2 279.2L354.2 285.0L335.5 285.0ZM390.2 292.9L367.9 292.9L367.9 258.0L375.3 258.0L375.3 286.8L390.2 286.8L390.2 292.9Z M425.2 292.9L410.3 292.9L410.3 258.0L424.2 258.0Q428.1 258.0 430.7 259.2Q433.2 260.3 434.5 262.3Q435.8 264.3 435.8 267.0L435.8 267.0Q435.8 269.0 435.0 270.6Q434.2 272.1 432.8 273.1Q431.3 274.1 429.5 274.5L429.5 274.5L429.5 274.8Q431.5 274.9 433.3 275.9Q435.0 277.0 436.1 278.8Q437.2 280.7 437.2 283.3L437.2 283.3Q437.2 286.1 435.8 288.2Q434.4 290.4 431.8 291.7Q429.1 292.9 425.2 292.9L425.2 292.9ZM417.6 277.6L417.6 286.9L423.7 286.9Q426.7 286.9 428.2 285.7Q429.6 284.5 429.6 282.5L429.6 282.5Q429.6 281.1 428.9 280.0Q428.2 278.9 426.9 278.3Q425.6 277.6 423.8 277.6L423.8 277.6L417.6 277.6ZM417.6 264.0L417.6 272.6L423.1 272.6Q424.6 272.6 425.8 272.1Q427.0 271.6 427.7 270.6Q428.4 269.6 428.4 268.2L428.4 268.2Q428.4 266.3 427.0 265.1Q425.7 264.0 423.2 264.0L423.2 264.0L417.6 264.0ZM476.1 275.5L476.1 275.5Q476.1 281.2 473.9 285.2Q471.7 289.2 468.0 291.3Q464.3 293.4 459.7 293.4L459.7 293.4Q455.1 293.4 451.4 291.3Q447.7 289.2 445.5 285.2Q443.4 281.2 443.4 275.5L443.4 275.5Q443.4 269.8 445.5 265.8Q447.7 261.8 451.4 259.6Q455.1 257.5 459.7 257.5L459.7 257.5Q464.3 257.5 468.0 259.6Q471.7 261.8 473.9 265.8Q476.1 269.8 476.1 275.5ZM468.6 275.5L468.6 275.5Q468.6 271.8 467.5 269.2Q466.4 266.7 464.4 265.4Q462.4 264.1 459.7 264.1L459.7 264.1Q457.0 264.1 455.0 265.4Q453.0 266.7 451.9 269.2Q450.8 271.8 450.8 275.5L450.8 275.5Q450.8 279.2 451.9 281.7Q453.0 284.3 455.0 285.6Q457.0 286.9 459.7 286.9L459.7 286.9Q462.4 286.9 464.4 285.6Q466.4 284.3 467.5 281.7Q468.6 279.2 468.6 275.5ZM505.4 258.0L512.7 258.0L512.7 292.9L506.3 292.9L491.1 271.0L490.9 271.0L490.9 292.9L483.5 292.9L483.5 258.0L490.0 258.0L505.1 280.0L505.4 280.0L505.4 258.0ZM535.6 266.0L526.8 292.9L518.9 292.9L531.0 258.0L540.5 258.0L552.5 292.9L544.6 292.9L535.8 266.0L535.6 266.0ZM526.3 285.0L526.3 279.2L545.0 279.2L545.0 285.0L526.3 285.0ZM580.5 258.0L587.9 258.0L587.9 292.9L581.5 292.9L566.3 271.0L566.1 271.0L566.1 292.9L558.7 292.9L558.7 258.0L565.2 258.0L580.2 280.0L580.5 280.0L580.5 258.0ZM626.6 269.3L619.1 269.3Q618.8 268.1 618.1 267.1Q617.5 266.1 616.5 265.5Q615.6 264.8 614.4 264.4Q613.2 264.1 611.8 264.1L611.8 264.1Q609.1 264.1 607.1 265.4Q605.1 266.7 604.0 269.3Q602.8 271.8 602.8 275.4L602.8 275.4Q602.8 279.1 604.0 281.6Q605.1 284.2 607.1 285.5Q609.1 286.9 611.9 286.9L611.9 286.9Q614.4 286.9 616.2 286.0Q617.9 285.1 618.9 283.5Q619.8 281.8 619.8 279.6L619.8 279.6L621.3 279.8L612.3 279.8L612.3 274.2L626.9 274.2L626.9 278.6Q626.9 283.2 625.0 286.5Q623.1 289.8 619.7 291.6Q616.2 293.4 611.8 293.4L611.8 293.4Q606.9 293.4 603.2 291.2Q599.5 289.1 597.4 285.0Q595.4 281.0 595.4 275.5L595.4 275.5Q595.4 271.3 596.6 267.9Q597.8 264.6 600.1 262.3Q602.3 260.0 605.3 258.8Q608.2 257.5 611.7 257.5L611.7 257.5Q614.7 257.5 617.2 258.4Q619.8 259.3 621.8 260.8Q623.7 262.4 625.0 264.6Q626.3 266.7 626.6 269.3L626.6 269.3Z "/><mask id="satori_om-id-2"><rect x="171" y="311" width="459" height="39" fill="#fff"/></mask><path fill="#991b1b" d="M182.9 323.0L177.0 341.0L171.8 341.0L179.8 317.7L186.1 317.7L194.2 341.0L188.9 341.0L183.1 323.0L182.9 323.0ZM176.7 335.6L176.7 331.8L189.2 331.8L189.2 335.6L176.7 335.6Z M212.6 341.0L212.6 341.0L204.4 341.0L204.4 317.7L212.7 317.7Q216.2 317.7 218.7 319.1Q221.3 320.5 222.6 323.1Q224.0 325.7 224.0 329.3L224.0 329.3Q224.0 332.9 222.6 335.5Q221.3 338.2 218.7 339.6Q216.2 341.0 212.6 341.0ZM209.3 321.9L209.3 336.7L212.4 336.7Q214.6 336.7 216.1 336.0Q217.6 335.2 218.3 333.5Q219.1 331.9 219.1 329.3L219.1 329.3Q219.1 326.7 218.3 325.1Q217.6 323.4 216.1 322.7Q214.6 321.9 212.4 321.9L212.4 321.9L209.3 321.9ZM232.4 341.0L227.6 341.0L227.6 323.5L232.4 323.5L232.4 341.0ZM230.0 321.2L230.0 321.2Q228.9 321.2 228.1 320.5Q227.4 319.8 227.4 318.8L227.4 318.8Q227.4 317.8 228.1 317.1Q228.9 316.3 230.0 316.3L230.0 316.3Q231.1 316.3 231.8 317.1Q232.6 317.8 232.6 318.8L232.6 318.8Q232.6 319.8 231.8 320.5Q231.1 321.2 230.0 321.2ZM244.1 347.9L244.1 347.9Q241.8 347.9 240.1 347.2Q238.4 346.6 237.4 345.5Q236.4 344.4 236.1 343.0L236.1 343.0L240.6 342.4Q240.8 342.9 241.3 343.4Q241.7 343.8 242.4 344.1Q243.2 344.4 244.2 344.4L244.2 344.4Q245.8 344.4 246.8 343.6Q247.9 342.8 247.9 341.1L247.9 341.1L247.9 337.9L247.7 337.9Q247.4 338.6 246.7 339.2Q246.1 339.9 245.1 340.3Q244.1 340.7 242.7 340.7L242.7 340.7Q240.7 340.7 239.1 339.8Q237.5 338.9 236.6 337.0Q235.6 335.1 235.6 332.2L235.6 332.2Q235.6 329.2 236.6 327.2Q237.5 325.2 239.2 324.3Q240.8 323.3 242.7 323.3L242.7 323.3Q244.1 323.3 245.1 323.8Q246.1 324.3 246.7 325.0Q247.3 325.7 247.7 326.4L247.7 326.4L247.9 326.4L247.9 323.5L252.7 323.5L252.7 341.1Q252.7 343.3 251.6 344.8Q250.5 346.3 248.6 347.1Q246.6 347.9 244.1 347.9ZM244.2 337.1L244.2 337.1Q245.4 337.1 246.2 336.5Q247.0 335.9 247.5 334.8Q247.9 333.7 247.9 332.2L247.9 332.2Q247.9 330.6 247.5 329.5Q247.0 328.4 246.2 327.7Q245.4 327.1 244.2 327.1L244.2 327.1Q243.0 327.1 242.2 327.8Q241.4 328.4 241.0 329.5Q240.6 330.7 240.6 332.2L240.6 332.2Q240.6 333.7 241.0 334.8Q241.4 335.9 242.2 336.5Q243.0 337.1 244.2 337.1ZM261.4 341.0L256.5 341.0L256.5 323.5L261.4 323.5L261.4 341.0ZM259.0 321.2L259.0 321.2Q257.9 321.2 257.1 320.5Q256.3 319.8 256.3 318.8L256.3 318.8Q256.3 317.8 257.1 317.1Q257.9 316.3 259.0 316.3L259.0 316.3Q260.0 316.3 260.8 317.1Q261.6 317.8 261.6 318.8L261.6 318.8Q261.6 319.8 260.8 320.5Q260.0 321.2 259.0 321.2ZM264 323.5L274.5 323.5L274.5 327.1L264 327.1L264 323.5ZM266.4 336.2L266.4 319.3L271.2 319.3L271.2 335.6Q271.2 336.3 271.4 336.6Q271.6 337.0 272.0 337.1Q272.4 337.3 272.9 337.3L272.9 337.3Q273.2 337.3 273.5 337.2Q273.9 337.2 274.1 337.1L274.1 337.1L274.8 340.7Q274.5 340.8 273.8 341.0Q273.1 341.2 272.2 341.2L272.2 341.2Q270.5 341.3 269.1 340.7Q267.8 340.2 267.1 339.1Q266.4 337.9 266.4 336.2L266.4 336.2ZM282.6 341.3L282.6 341.3Q281.0 341.3 279.7 340.7Q278.4 340.1 277.6 339.0Q276.8 337.8 276.8 336.1L276.8 336.1Q276.8 334.6 277.4 333.6Q277.9 332.6 278.8 332.0Q279.8 331.4 280.9 331.1Q282.1 330.8 283.4 330.7L283.4 330.7Q284.9 330.5 285.9 330.4Q286.8 330.3 287.2 330.0Q287.6 329.7 287.6 329.1L287.6 329.1L287.6 329.1Q287.6 328.0 286.9 327.4Q286.3 326.8 285.0 326.8L285.0 326.8Q283.7 326.8 283.0 327.4Q282.2 328.0 281.9 328.8L281.9 328.8L277.5 328.5Q277.8 326.9 278.8 325.7Q279.8 324.5 281.4 323.9Q283.0 323.3 285.1 323.3L285.1 323.3Q286.5 323.3 287.8 323.6Q289.2 324.0 290.2 324.7Q291.3 325.4 291.9 326.5Q292.5 327.6 292.5 329.2L292.5 329.2L292.5 341.0L287.9 341.0L287.9 338.5L287.7 338.5Q287.3 339.3 286.6 340.0Q285.9 340.6 284.9 340.9Q283.9 341.3 282.6 341.3ZM284.0 337.9L284.0 337.9Q285.1 337.9 285.9 337.5Q286.7 337.1 287.2 336.4Q287.7 335.6 287.7 334.7L287.7 334.7L287.7 332.9Q287.4 333.0 287.0 333.1Q286.6 333.2 286.2 333.3Q285.7 333.4 285.2 333.5Q284.7 333.6 284.3 333.6L284.3 333.6Q283.4 333.8 282.8 334.0Q282.2 334.3 281.8 334.8Q281.5 335.2 281.5 335.9L281.5 335.9Q281.5 336.9 282.2 337.4Q282.9 337.9 284.0 337.9ZM296.2 317.7L301.1 317.7L301.1 341.0L296.2 341.0L296.2 317.7Z M332.9 325.2L327.9 325.2Q327.6 324.4 327.2 323.7Q326.8 323.1 326.2 322.6Q325.5 322.2 324.7 322.0Q324.0 321.7 323 321.7L323 321.7Q321.2 321.7 319.9 322.6Q318.5 323.5 317.8 325.2Q317.0 326.9 317.0 329.3L317.0 329.3Q317.0 331.7 317.8 333.4Q318.5 335.1 319.9 336.0Q321.2 336.9 323.0 336.9L323.0 336.9Q324.7 336.9 325.9 336.3Q327.1 335.7 327.7 334.6Q328.4 333.5 328.4 332.1L328.4 332.1L329.4 332.2L323.4 332.2L323.4 328.5L333.1 328.5L333.1 331.4Q333.1 334.5 331.8 336.7Q330.5 338.9 328.2 340.1Q326.0 341.3 323.0 341.3L323.0 341.3Q319.8 341.3 317.3 339.8Q314.8 338.4 313.4 335.7Q312.0 333.0 312.0 329.3L312.0 329.3Q312.0 326.5 312.9 324.3Q313.7 322.1 315.2 320.5Q316.7 319.0 318.6 318.2Q320.6 317.4 322.9 317.4L322.9 317.4Q324.9 317.4 326.6 317.9Q328.3 318.5 329.6 319.6Q331.0 320.6 331.8 322.0Q332.6 323.5 332.9 325.2L332.9 325.2ZM341.7 341.3L341.7 341.3Q340 341.3 338.7 340.7Q337.4 340.1 336.6 339.0Q335.9 337.8 335.9 336.1L335.9 336.1Q335.9 334.6 336.4 333.6Q336.9 332.6 337.9 332.0Q338.8 331.4 340.0 331.1Q341.1 330.8 342.4 330.7L342.4 330.7Q344.0 330.5 344.9 330.4Q345.8 330.3 346.2 330.0Q346.7 329.7 346.7 329.1L346.7 329.1L346.7 329.1Q346.7 328.0 346.0 327.4Q345.3 326.8 344.1 326.8L344.1 326.8Q342.8 326.8 342.0 327.4Q341.2 328.0 341.0 328.8L341.0 328.8L336.5 328.5Q336.8 326.9 337.8 325.7Q338.8 324.5 340.4 323.9Q342 323.3 344.1 323.3L344.1 323.3Q345.5 323.3 346.9 323.6Q348.2 324.0 349.3 324.7Q350.3 325.4 350.9 326.5Q351.5 327.6 351.5 329.2L351.5 329.2L351.5 341.0L346.9 341.0L346.9 338.5L346.8 338.5Q346.4 339.3 345.6 340.0Q344.9 340.6 344.0 340.9Q343.0 341.3 341.7 341.3ZM343.1 337.9L343.1 337.9Q344.1 337.9 344.9 337.5Q345.8 337.1 346.2 336.4Q346.7 335.6 346.7 334.7L346.7 334.7L346.7 332.9Q346.5 333.0 346.1 333.1Q345.7 333.2 345.2 333.3Q344.7 333.4 344.2 333.5Q343.7 333.6 343.3 333.6L343.3 333.6Q342.5 333.8 341.8 334.0Q341.2 334.3 340.9 334.8Q340.5 335.2 340.5 335.9L340.5 335.9Q340.5 336.9 341.2 337.4Q341.9 337.9 343.1 337.9ZM360.1 341.0L355.3 341.0L355.3 323.5L359.9 323.5L359.9 326.6L360.1 326.6Q360.6 325.0 361.9 324.2Q363.2 323.3 364.9 323.3L364.9 323.3Q366.7 323.3 368 324.2Q369.3 325.1 369.7 326.6L369.7 326.6L369.9 326.6Q370.4 325.1 371.8 324.2Q373.2 323.3 375.1 323.3L375.1 323.3Q377.6 323.3 379.1 324.8Q380.6 326.4 380.6 329.2L380.6 329.2L380.6 341.0L375.8 341.0L375.8 330.2Q375.8 328.7 375.0 328.0Q374.3 327.3 373.1 327.3L373.1 327.3Q371.8 327.3 371.0 328.1Q370.3 328.9 370.3 330.3L370.3 330.3L370.3 341.0L365.6 341.0L365.6 330.1Q365.6 328.8 364.9 328.0Q364.1 327.3 362.9 327.3L362.9 327.3Q362.1 327.3 361.5 327.7Q360.9 328.1 360.5 328.8Q360.1 329.5 360.1 330.5L360.1 330.5L360.1 341.0ZM392.4 341.3L392.4 341.3Q389.7 341.3 387.8 340.2Q385.8 339.1 384.8 337.1Q383.7 335.1 383.7 332.3L383.7 332.3Q383.7 329.6 384.8 327.6Q385.8 325.5 387.7 324.4Q389.6 323.3 392.2 323.3L392.2 323.3Q393.9 323.3 395.4 323.8Q396.9 324.4 398.0 325.5Q399.2 326.6 399.8 328.2Q400.4 329.9 400.4 332.1L400.4 332.1L400.4 333.5L385.7 333.5L385.7 330.5L395.9 330.5Q395.9 329.4 395.4 328.6Q394.9 327.8 394.1 327.3Q393.3 326.9 392.3 326.9L392.3 326.9Q391.2 326.9 390.3 327.4Q389.5 327.9 389.0 328.7Q388.5 329.6 388.5 330.6L388.5 330.6L388.5 333.5Q388.5 334.8 389.0 335.7Q389.5 336.7 390.4 337.2Q391.3 337.7 392.5 337.7L392.5 337.7Q393.3 337.7 394.0 337.5Q394.6 337.2 395.1 336.8Q395.6 336.3 395.8 335.7L395.8 335.7L400.3 336.0Q400.0 337.6 398.9 338.8Q397.9 340.0 396.2 340.6Q394.6 341.3 392.4 341.3ZM403.6 317.7L408.4 317.7L408.4 341.0L403.6 341.0L403.6 317.7ZM417.3 341.3L417.3 341.3Q415.6 341.3 414.3 340.7Q413.0 340.1 412.2 339.0Q411.5 337.8 411.5 336.1L411.5 336.1Q411.5 334.6 412.0 333.6Q412.5 332.6 413.4 332.0Q414.4 331.4 415.5 331.1Q416.7 330.8 418.0 330.7L418.0 330.7Q419.5 330.5 420.5 330.4Q421.4 330.3 421.8 330.0Q422.2 329.7 422.2 329.1L422.2 329.1L422.2 329.1Q422.2 328.0 421.6 327.4Q420.9 326.8 419.6 326.8L419.6 326.8Q418.3 326.8 417.6 327.4Q416.8 328.0 416.5 328.8L416.5 328.8L412.1 328.5Q412.4 326.9 413.4 325.7Q414.4 324.5 416.0 323.9Q417.6 323.3 419.7 323.3L419.7 323.3Q421.1 323.3 422.5 323.6Q423.8 324.0 424.8 324.7Q425.9 325.4 426.5 326.5Q427.1 327.6 427.1 329.2L427.1 329.2L427.1 341.0L422.5 341.0L422.5 338.5L422.4 338.5Q421.9 339.3 421.2 340.0Q420.5 340.6 419.5 340.9Q418.5 341.3 417.3 341.3ZM418.6 337.9L418.6 337.9Q419.7 337.9 420.5 337.5Q421.3 337.1 421.8 336.4Q422.3 335.6 422.3 334.7L422.3 334.7L422.3 332.9Q422.0 333.0 421.7 333.1Q421.3 333.2 420.8 333.3Q420.3 333.4 419.8 333.5Q419.3 333.6 418.9 333.6L418.9 333.6Q418.1 333.8 417.4 334.0Q416.8 334.3 416.4 334.8Q416.1 335.2 416.1 335.9L416.1 335.9Q416.1 336.9 416.8 337.4Q417.5 337.9 418.6 337.9ZM435.7 330.9L435.7 330.9L435.7 341.0L430.8 341.0L430.8 323.5L435.5 323.5L435.5 326.6L435.7 326.6Q436.2 325.1 437.6 324.2Q439.0 323.3 440.9 323.3L440.9 323.3Q442.7 323.3 444.1 324.1Q445.4 324.9 446.2 326.3Q446.9 327.8 446.9 329.8L446.9 329.8L446.9 341.0L442.1 341.0L442.1 330.7Q442.1 329.1 441.3 328.2Q440.4 327.3 439.0 327.3L439.0 327.3Q438.0 327.3 437.3 327.7Q436.5 328.1 436.1 328.9Q435.7 329.7 435.7 330.9Z M458.3 317.7L463.2 317.7L463.2 341.0L458.3 341.0L458.3 317.7ZM472.0 330.9L472.0 330.9L472.0 341.0L467.1 341.0L467.1 323.5L471.8 323.5L471.8 326.6L472.0 326.6Q472.5 325.1 473.9 324.2Q475.3 323.3 477.2 323.3L477.2 323.3Q479.0 323.3 480.4 324.1Q481.7 324.9 482.5 326.3Q483.2 327.8 483.2 329.8L483.2 329.8L483.2 341.0L478.4 341.0L478.4 330.7Q478.4 329.1 477.6 328.2Q476.7 327.3 475.3 327.3L475.3 327.3Q474.3 327.3 473.6 327.7Q472.8 328.1 472.4 328.9Q472.0 329.7 472.0 330.9ZM501.6 328.5L501.6 328.5L497.1 328.7Q497.0 328.2 496.6 327.7Q496.3 327.3 495.7 327.0Q495.0 326.7 494.2 326.7L494.2 326.7Q493.1 326.7 492.3 327.2Q491.5 327.6 491.5 328.4L491.5 328.4Q491.5 329.1 492.0 329.5Q492.5 329.9 493.8 330.2L493.8 330.2L496.9 330.8Q499.5 331.3 500.7 332.5Q502.0 333.7 502.0 335.5L502.0 335.5Q502.0 337.3 500.9 338.6Q499.9 339.8 498.2 340.6Q496.5 341.3 494.2 341.3L494.2 341.3Q490.7 341.3 488.7 339.8Q486.6 338.4 486.3 335.9L486.3 335.9L491.0 335.6Q491.2 336.7 492.1 337.3Q492.9 337.8 494.2 337.8L494.2 337.8Q495.5 337.8 496.2 337.3Q497.0 336.8 497.0 336.0L497.0 336.0Q497.0 335.4 496.5 334.9Q495.9 334.5 494.8 334.3L494.8 334.3L491.8 333.7Q489.2 333.2 488.0 331.9Q486.7 330.7 486.7 328.7L486.7 328.7Q486.7 327.0 487.6 325.8Q488.6 324.6 490.2 323.9Q491.9 323.3 494.1 323.3L494.1 323.3Q497.4 323.3 499.3 324.7Q501.2 326.1 501.6 328.5ZM503.8 323.5L514.3 323.5L514.3 327.1L503.8 327.1L503.8 323.5ZM506.2 336.2L506.2 319.3L511.0 319.3L511.0 335.6Q511.0 336.3 511.2 336.6Q511.4 337.0 511.8 337.1Q512.2 337.3 512.6 337.3L512.6 337.3Q513.0 337.3 513.3 337.2Q513.7 337.2 513.9 337.1L513.9 337.1L514.6 340.7Q514.3 340.8 513.6 341.0Q512.9 341.2 512.0 341.2L512.0 341.2Q510.2 341.3 508.9 340.7Q507.6 340.2 506.9 339.1Q506.2 337.9 506.2 336.2L506.2 336.2ZM522.3 341.0L517.4 341.0L517.4 323.5L522.1 323.5L522.1 326.5L522.3 326.5Q522.8 324.9 523.9 324.1Q525.0 323.2 526.5 323.2L526.5 323.2Q526.9 323.2 527.3 323.3Q527.7 323.3 528.0 323.4L528.0 323.4L528.0 327.7Q527.7 327.6 527.1 327.5Q526.5 327.5 526.0 327.5L526.0 327.5Q524.9 327.5 524.1 327.9Q523.3 328.4 522.8 329.2Q522.3 330.0 522.3 331.1L522.3 331.1L522.3 341.0ZM541.7 333.5L541.7 333.5L541.7 323.5L546.6 323.5L546.6 341.0L541.9 341.0L541.9 337.8L541.7 337.8Q541.1 339.3 539.8 340.2Q538.4 341.2 536.4 341.2L536.4 341.2Q534.7 341.2 533.4 340.4Q532.0 339.6 531.3 338.1Q530.5 336.7 530.5 334.6L530.5 334.6L530.5 323.5L535.4 323.5L535.4 333.7Q535.4 335.3 536.2 336.2Q537.0 337.1 538.4 337.1L538.4 337.1Q539.3 337.1 540.0 336.7Q540.8 336.3 541.3 335.5Q541.7 334.7 541.7 333.5ZM555.3 341.0L550.4 341.0L550.4 323.5L555.0 323.5L555.0 326.6L555.2 326.6Q555.8 325.0 557.1 324.2Q558.3 323.3 560.1 323.3L560.1 323.3Q561.9 323.3 563.2 324.2Q564.4 325.1 564.8 326.6L564.8 326.6L565.0 326.6Q565.6 325.1 567.0 324.2Q568.4 323.3 570.3 323.3L570.3 323.3Q572.7 323.3 574.3 324.8Q575.8 326.4 575.8 329.2L575.8 329.2L575.8 341.0L571.0 341.0L571.0 330.2Q571.0 328.7 570.2 328.0Q569.4 327.3 568.3 327.3L568.3 327.3Q566.9 327.3 566.2 328.1Q565.5 328.9 565.5 330.3L565.5 330.3L565.5 341.0L560.8 341.0L560.8 330.1Q560.8 328.8 560.0 328.0Q559.3 327.3 558.1 327.3L558.1 327.3Q557.3 327.3 556.7 327.7Q556.0 328.1 555.6 328.8Q555.3 329.5 555.3 330.5L555.3 330.5L555.3 341.0ZM587.6 341.3L587.6 341.3Q584.9 341.3 582.9 340.2Q581.0 339.1 579.9 337.1Q578.9 335.1 578.9 332.3L578.9 332.3Q578.9 329.6 579.9 327.6Q581.0 325.5 582.9 324.4Q584.8 323.3 587.4 323.3L587.4 323.3Q589.1 323.3 590.6 323.8Q592.1 324.4 593.2 325.5Q594.3 326.6 594.9 328.2Q595.6 329.9 595.6 332.1L595.6 332.1L595.6 333.5L580.8 333.5L580.8 330.5L591.0 330.5Q591.0 329.4 590.6 328.6Q590.1 327.8 589.3 327.3Q588.5 326.9 587.4 326.9L587.4 326.9Q586.3 326.9 585.5 327.4Q584.6 327.9 584.2 328.7Q583.7 329.6 583.7 330.6L583.7 330.6L583.7 333.5Q583.7 334.8 584.2 335.7Q584.6 336.7 585.5 337.2Q586.4 337.7 587.6 337.7L587.6 337.7Q588.4 337.7 589.1 337.5Q589.8 337.2 590.3 336.8Q590.7 336.3 591.0 335.7L591.0 335.7L595.5 336.0Q595.1 337.6 594.1 338.8Q593.0 340.0 591.4 340.6Q589.7 341.3 587.6 341.3ZM603.6 330.9L603.6 330.9L603.6 341.0L598.7 341.0L598.7 323.5L603.3 323.5L603.3 326.6L603.5 326.6Q604.1 325.1 605.5 324.2Q606.9 323.3 608.8 323.3L608.8 323.3Q610.6 323.3 612.0 324.1Q613.3 324.9 614.1 326.3Q614.8 327.8 614.8 329.8L614.8 329.8L614.8 341.0L610.0 341.0L610.0 330.7Q610.0 329.1 609.2 328.2Q608.3 327.3 606.9 327.3L606.9 327.3Q605.9 327.3 605.2 327.7Q604.4 328.1 604.0 328.9Q603.6 329.7 603.6 330.9ZM617.4 323.5L627.9 323.5L627.9 327.1L617.4 327.1L617.4 323.5ZM619.8 336.2L619.8 319.3L624.6 319.3L624.6 335.6Q624.6 336.3 624.8 336.6Q625.0 337.0 625.4 337.1Q625.8 337.3 626.3 337.3L626.3 337.3Q626.6 337.3 626.9 337.2Q627.3 337.2 627.5 337.1L627.5 337.1L628.2 340.7Q627.9 340.8 627.2 341.0Q626.5 341.2 625.6 341.2L625.6 341.2Q623.9 341.3 622.5 340.7Q621.2 340.2 620.5 339.1Q619.8 337.9 619.8 336.2L619.8 336.2Z "/></svg>